<svg width="120" height="78" viewBox="0 0 120 78" fill="none" xmlns="http://www.w3.org/2000/svg">
    <mask id="mask0_3751_5838" style="mask-type:luminance" maskUnits="userSpaceOnUse" x="7" y="7" width="106"
        height="64">
        <path d="M7.44971 7.24048H112.461V70.751H7.44971V7.24048Z" fill="white" />
    </mask>
    <g mask="url(#mask0_3751_5838)">
        <path
            d="M112.104 47.5994C108.223 47.9123 100.283 49.4766 87.4351 50.2364C87.212 63.0636 80.5652 69.1421 72.6693 67.4884L72.4462 50.8174C68.4314 50.9068 64.1488 50.9515 59.4648 50.9515C54.4239 50.9515 49.8291 50.8621 45.5912 50.7727C46.8403 57.3428 51.0336 60.4267 56.4314 60.4267C59.4202 60.4267 61.5615 59.1752 63.6135 59.6222C66.7362 60.2926 67.673 63.0189 68.6098 67.1308C68.6544 67.3096 68.1637 67.5778 68.2083 67.7565C66.067 69.0974 60.2678 70.7064 55.5392 70.7064C42.5131 70.7064 31.7622 64.0469 30.2009 50.147C18.3347 49.3872 11.3756 48.0911 7.7176 47.376C7.31611 47.3313 7.36072 46.7056 7.80681 46.7056C7.80681 46.7056 30.5131 46.5715 59.7771 46.5715C87.0336 46.5715 112.06 46.8843 112.06 46.8843C112.506 46.8843 112.595 47.5547 112.104 47.5994Z"
            fill="black" />
    </g>
    <mask id="mask1_3751_5838" style="mask-type:luminance" maskUnits="userSpaceOnUse" x="7" y="7" width="106"
        height="64">
        <path d="M7.44971 7.24048H112.461V70.751H7.44971V7.24048Z" fill="white" />
    </mask>
    <g mask="url(#mask1_3751_5838)">
        <path
            d="M87.0777 44.5155C82.6614 44.4261 77.6651 44.3367 72.5796 44.292V44.2027L73.0703 24.5372C73.2933 24.4925 72.9811 24.0456 73.2041 24.0009C81.3231 22.2578 87.4346 29.0066 87.2116 38.7947L87.39 43.8898L87.0777 44.5155Z"
            fill="black" />
    </g>
    <mask id="mask2_3751_5838" style="mask-type:luminance" maskUnits="userSpaceOnUse" x="7" y="7" width="106"
        height="64">
        <path d="M7.44971 7.24048H112.461V70.751H7.44971V7.24048Z" fill="white" />
    </mask>
    <g mask="url(#mask2_3751_5838)">
        <path
            d="M45.2788 44.2473C39.7472 44.292 34.6617 44.3367 30.0669 44.4261V44.1132C30.9145 28.9619 42.0223 21.7661 55.5836 21.7661C60.3569 21.7661 66.1115 23.3751 68.2528 24.7159C67.2267 29.096 66.9145 32.1352 63.658 32.8503C61.5613 33.3419 59.4201 32.0458 56.4758 32.0458C50.4535 32.0458 46.4386 35.3979 45.8587 43.6663L45.2788 44.2473Z"
            fill="black" />
    </g>
    <mask id="mask3_3751_5838" style="mask-type:luminance" maskUnits="userSpaceOnUse" x="7" y="7" width="106"
        height="64">
        <path d="M7.44971 7.24048H112.461V70.751H7.44971V7.24048Z" fill="white" />
    </mask>
    <g mask="url(#mask3_3751_5838)">
        <path
            d="M85.1595 14.1234C85.1595 17.6096 82.3491 20.4253 78.8696 20.4253C75.39 20.4253 72.5796 17.6096 72.5796 14.1234C72.5796 10.6373 75.39 7.82153 78.8696 7.82153C82.3491 7.82153 85.1595 10.6373 85.1595 14.1234Z"
            fill="black" />
    </g>
    <mask id="mask4_3751_5838" style="mask-type:luminance" maskUnits="userSpaceOnUse" x="7" y="45" width="106"
        height="26">
        <path
            d="M60 45.9904C87.3011 45.9904 112.104 46.929 112.104 46.929C112.327 46.929 112.461 47.1078 112.461 47.2866C112.461 47.4206 112.372 47.5994 112.149 47.5994C112.283 47.5547 112.372 47.4653 112.416 47.3759L30.2008 48.091C30.2008 48.091 73.2491 49.7447 77.6655 49.7447C76.2379 51.8007 74.855 53.365 72.803 55.4656L72.9368 66.9073L72.7138 50.2364C68.6989 50.3258 64.4164 50.3705 59.7324 50.3705C54.6915 50.3705 50.0967 50.2811 45.8588 50.1917C45.9034 50.4152 45.948 50.5939 45.9926 50.8174C47.3755 56.9852 51.4796 59.8456 56.6989 59.8456C59.1971 59.8456 61.1153 58.9071 62.8997 58.9071C63.2119 58.9071 63.5242 58.9071 63.8365 58.9964C65.9777 59.4434 66.8699 60.963 67.4945 63.1977C67.8067 64.3151 68.0744 65.6559 68.3866 67.0861C67.8067 64.4491 67.4052 62.3038 66.513 60.8736C61.3963 64.619 55.6997 67.5643 49.5168 69.5309C39.4439 67.6805 31.7398 61.1507 30.4238 49.5213C18.513 48.7615 11.3755 48.0911 7.7175 47.3759C7.67289 47.3759 7.58367 47.3313 7.53906 47.2866V46.7949C7.58367 46.7502 7.67289 46.7055 7.80672 46.7055C7.80672 46.7055 30.6915 45.9457 60 45.9904ZM55.4052 70.0806C53.3532 70.0806 51.3904 69.8571 49.4721 69.5443C49.487 69.5383 49.5019 69.5339 49.5168 69.5309C51.4112 69.8765 53.374 70.0598 55.4052 70.0806ZM55.7621 70.0806C58.9294 70.0806 62.4982 69.3655 65.2194 68.5163C62.5428 69.4102 58.9294 70.0806 55.7621 70.0806ZM65.2194 68.5163C65.5762 68.3822 65.9331 68.2928 66.29 68.1588C65.9331 68.2928 65.5762 68.4269 65.2194 68.5163ZM67.316 67.7565C67.0037 67.8906 66.6469 68.0247 66.29 68.1588C66.6469 68.0247 66.9591 67.8906 67.316 67.7565ZM68.4313 67.1755C68.119 67.3543 67.7175 67.5777 67.2714 67.7565C67.7175 67.533 68.119 67.3543 68.4313 67.1755ZM77.3978 66.952C77.4424 66.952 77.5316 66.9073 77.5762 66.9073C77.5316 66.9073 77.487 66.952 77.3978 66.952ZM77.5762 66.9073C77.6655 66.9073 77.7547 66.8626 77.8885 66.8179C77.7993 66.8626 77.7101 66.9073 77.5762 66.9073ZM86.0075 58.9071C84.3123 63.3318 81.3681 66.0134 77.8885 66.8626C81.3681 65.9687 84.3123 63.2871 86.0075 58.9071ZM87.0781 55.3762C86.855 56.3148 86.632 57.2534 86.3197 58.1026C86.5874 57.2534 86.855 56.3148 87.0781 55.3762ZM87.2119 54.4376C87.3755 53.4722 87.4974 52.4413 87.5777 51.3448C87.5093 52.4353 87.3874 53.4663 87.2119 54.4376ZM87.5777 51.3448C87.6164 50.7816 87.6432 50.2036 87.658 49.6107C87.658 49.7894 87.658 50.0129 87.658 50.1917C87.6342 50.582 87.6075 50.9664 87.5777 51.3448ZM55.5391 70.0806H55.5837C55.5391 70.0806 55.5391 70.0806 55.5391 70.0806ZM55.5391 70.0806H55.4944C55.4944 70.0806 55.4944 70.0806 55.5391 70.0806ZM55.4944 70.0806H55.4498C55.4498 70.0806 55.4498 70.0806 55.4944 70.0806ZM75.3904 67.1308H75.435C75.3904 67.1308 75.3904 67.1308 75.3904 67.1308ZM75.6134 67.1308H75.658C75.6134 67.1308 75.6134 67.1308 75.6134 67.1308ZM75.7026 67.1308C75.7472 67.1308 75.7472 67.1308 75.7026 67.1308V67.1308ZM75.7472 67.1308C75.7918 67.1308 75.7918 67.1308 75.7472 67.1308V67.1308ZM75.7918 67.1308C75.8365 67.1308 75.8365 67.1308 75.7918 67.1308V67.1308ZM75.9257 67.1308C75.9703 67.1308 75.9703 67.1308 75.9257 67.1308V67.1308ZM75.9703 67.1308C76.0149 67.1308 76.0149 67.1308 75.9703 67.1308V67.1308ZM76.1933 67.1308C76.2379 67.1308 76.2379 67.1308 76.1933 67.1308V67.1308ZM76.2826 67.1308C76.2826 67.0861 76.2826 67.0861 76.2826 67.1308V67.1308ZM76.4164 67.0861C76.461 67.0861 76.461 67.0861 76.4164 67.0861V67.0861ZM76.9517 67.0414H76.9963C76.9517 67.0414 76.9517 67.0414 76.9517 67.0414ZM77.0409 66.9967H77.0855C77.0855 66.9967 77.0855 66.9967 77.0409 66.9967ZM77.0855 66.9967C77.1301 66.9967 77.1301 66.9967 77.0855 66.9967V66.9967ZM77.1748 66.9967H77.2194C77.1748 66.9967 77.1748 66.9967 77.1748 66.9967ZM86.1413 58.5942C86.1413 58.5495 86.1413 58.5495 86.1413 58.5942V58.5942ZM86.1859 58.4601C86.1859 58.4154 86.1859 58.4154 86.1859 58.4601V58.4601ZM86.2305 58.3707C86.2305 58.326 86.2305 58.326 86.2305 58.3707V58.3707ZM86.2305 58.326V58.2813C86.2305 58.2813 86.2305 58.2813 86.2305 58.326ZM86.2751 58.2366C86.2751 58.1919 86.2751 58.1919 86.2751 58.2366V58.2366ZM87.0335 55.3315V55.2868C87.0335 55.3315 87.0335 55.3315 87.0335 55.3315ZM87.0335 55.2868C87.0781 55.2868 87.0781 55.2868 87.0335 55.2868V55.2868ZM87.0781 55.2421V55.1974C87.0781 55.1974 87.0781 55.1974 87.0781 55.2421ZM87.0781 55.1527V55.108C87.0781 55.1527 87.0781 55.1527 87.0781 55.1527ZM87.1227 54.9293C87.1227 54.8846 87.1227 54.8846 87.1227 54.9293V54.9293ZM87.1227 54.8846C87.1227 54.8399 87.1227 54.8399 87.1227 54.8846V54.8846ZM87.1227 54.8399C87.1673 54.8399 87.1673 54.8399 87.1227 54.8399V54.8399ZM87.1673 54.7952C87.1673 54.7505 87.1673 54.7505 87.1673 54.7952V54.7952ZM87.1673 54.7505C87.1673 54.7058 87.1673 54.7058 87.1673 54.7505V54.7505ZM87.1673 54.7058C87.1673 54.6611 87.1673 54.6611 87.1673 54.7058V54.7058ZM87.1673 54.6611C87.1673 54.6164 87.1673 54.6164 87.1673 54.6611V54.6611ZM87.1673 54.6164C87.1673 54.5717 87.1673 54.5717 87.1673 54.6164V54.6164ZM87.2119 54.527C87.2119 54.4823 87.2119 54.4823 87.2119 54.4376C87.2119 54.4823 87.2119 54.527 87.2119 54.527Z"
            fill="white" />
    </mask>
    <g mask="url(#mask4_3751_5838)">
        <path d="M7.53906 45.9457H112.416V70.0806H7.53906V45.9457Z" fill="url(#paint0_linear_3751_5838)" />
    </g>
    <mask id="mask5_3751_5838" style="mask-type:luminance" maskUnits="userSpaceOnUse" x="7" y="7" width="106"
        height="64">
        <path d="M7.44971 7.24048H112.461V70.751H7.44971V7.24048Z" fill="white" />
    </mask>
    <g mask="url(#mask5_3751_5838)">
        <path
            d="M112.148 47.5994C111.479 47.6441 110.632 47.7782 109.695 47.8676C110.721 47.7782 111.568 47.6888 112.148 47.5994Z"
            fill="#B1B3B4" />
    </g>
    <mask id="mask6_3751_5838" style="mask-type:luminance" maskUnits="userSpaceOnUse" x="7" y="7" width="106"
        height="64">
        <path d="M7.44971 7.24048H112.461V70.751H7.44971V7.24048Z" fill="white" />
    </mask>
    <g mask="url(#mask6_3751_5838)">
        <path
            d="M109.695 47.9123C103.494 48.538 90.6466 49.566 87.6577 49.6554C100.505 48.8956 108.223 47.957 112.148 47.5994C111.435 47.6441 110.632 47.7335 109.695 47.9123Z"
            fill="black" />
    </g>
    <mask id="mask7_3751_5838" style="mask-type:luminance" maskUnits="userSpaceOnUse" x="30" y="47" width="83"
        height="21">
        <path
            d="M112.416 47.3759C112.372 47.51 112.283 47.5994 112.149 47.5994C108.223 47.9569 100.506 48.8955 87.6581 49.6553C87.4351 61.097 82.1265 67.1755 75.3904 67.1755C74.5875 67.1755 73.7399 67.0861 72.8923 66.9073L72.7585 55.4656C74.7659 53.3649 76.1934 51.8006 77.6209 49.7447C73.2046 49.7447 30.1562 48.091 30.1562 48.091L112.416 47.3759Z"
            fill="white" />
    </mask>
    <g mask="url(#mask7_3751_5838)">
        <path d="M30.1562 47.3759H112.416V67.1308H30.1562V47.3759Z" fill="url(#paint1_linear_3751_5838)" />
    </g>
    <mask id="mask8_3751_5838" style="mask-type:luminance" maskUnits="userSpaceOnUse" x="49" y="60" width="20"
        height="11">
        <path
            d="M66.5129 60.8735C67.4051 62.3038 67.762 64.4491 68.3865 67.086C68.3865 67.1307 68.3865 67.1307 68.3865 67.1307C66.2898 68.4716 60.4906 70.0805 55.762 70.0805H55.7173C55.6727 70.0805 55.6727 70.0805 55.6727 70.0805C55.6281 70.0805 55.6281 70.0805 55.5835 70.0805H55.5389C53.4869 70.0805 51.4348 69.9018 49.5166 69.5442C55.6727 67.5777 61.4274 64.6279 66.5129 60.8735Z"
            fill="white" />
    </mask>
    <g mask="url(#mask8_3751_5838)">
        <path d="M49.5166 60.8735H68.4311V70.0805H49.5166V60.8735Z" fill="url(#paint2_linear_3751_5838)" />
    </g>
    <mask id="mask9_3751_5838" style="mask-type:luminance" maskUnits="userSpaceOnUse" x="72" y="23" width="16"
        height="21">
        <path
            d="M76.1488 23.4645C82.9294 23.4645 87.6581 29.4536 87.4796 38.1689L87.435 43.5769V43.8898C83.0187 43.8451 77.9332 43.7557 72.8477 43.711V43.6216L72.8923 23.9562C74.0075 23.6433 75.0781 23.5092 76.1488 23.4645Z"
            fill="white" />
    </mask>
    <g mask="url(#mask9_3751_5838)">
        <path d="M92.2971 24.6712L86.8101 47.3312L68.1187 42.7723L73.6503 20.1124L92.2971 24.6712Z"
            fill="url(#paint3_linear_3751_5838)" />
    </g>
    <mask id="mask10_3751_5838" style="mask-type:luminance" maskUnits="userSpaceOnUse" x="30" y="21" width="39"
        height="23">
        <path
            d="M55.8068 21.1404C60.5354 21.1404 66.29 22.7494 68.4313 24.0902C67.4053 28.4702 67.093 31.5094 63.8365 32.2245C61.7399 32.7162 59.5986 31.4201 56.6544 31.4201C50.632 31.4201 46.0819 35.2638 45.5019 43.5322V43.6663C39.9703 43.711 34.8848 43.7557 30.29 43.845V43.5322C31.093 28.3808 42.2008 21.1851 55.8068 21.1404Z"
            fill="white" />
    </mask>
    <g mask="url(#mask10_3751_5838)">
        <path d="M73.6507 22.4812L66.2901 52.6498L25.0708 42.5936L32.4314 12.3803L73.6507 22.4812Z"
            fill="url(#paint4_linear_3751_5838)" />
    </g>
    <mask id="mask11_3751_5838" style="mask-type:luminance" maskUnits="userSpaceOnUse" x="72" y="7" width="14"
        height="13">
        <path
            d="M79.0932 7.19574C82.5727 7.19574 85.3831 10.0115 85.3831 13.4976C85.3831 16.9838 82.5727 19.7995 79.0932 19.7995C75.6136 19.7995 72.8032 16.9838 72.8032 13.4976C72.8032 10.0562 75.6136 7.19574 79.0932 7.19574Z"
            fill="white" />
    </mask>
    <g mask="url(#mask11_3751_5838)">
        <path d="M88.2825 7.91087L84.6691 22.7047L69.9033 19.0844L73.5167 4.33533L88.2825 7.91087Z"
            fill="url(#paint5_linear_3751_5838)" />
    </g>
    <mask id="mask12_3751_5838" style="mask-type:luminance" maskUnits="userSpaceOnUse" x="7" y="7" width="106"
        height="64">
        <path d="M7.44971 7.24048H112.461V70.751H7.44971V7.24048Z" fill="white" />
    </mask>
    <g mask="url(#mask12_3751_5838)">
        <path
            d="M83.5093 18.0565C83.5093 18.0565 83.4646 18.1012 83.3308 18.1905C83.2862 18.2352 83.197 18.3246 83.1524 18.3693C83.1226 18.3991 83.078 18.4438 83.0185 18.5034C82.9888 18.5332 82.9442 18.5779 82.8847 18.6375C82.7955 18.7269 82.6617 18.8163 82.5278 18.9057C82.394 18.995 82.2602 19.0844 82.0817 19.1738C81.9033 19.2632 81.7249 19.3526 81.5464 19.442C81.368 19.5314 81.1449 19.5761 80.9219 19.6655C80.6988 19.7101 80.4758 19.7995 80.2081 19.8442C79.9405 19.8889 79.7174 19.9336 79.4498 19.9336C78.9145 19.9783 78.3345 19.9336 77.7546 19.8442C77.1747 19.7101 76.5948 19.5314 76.0594 19.2185C75.5241 18.9057 74.9888 18.5481 74.5427 18.1012C74.3197 17.8777 74.1412 17.6542 73.9182 17.386C73.829 17.2669 73.7397 17.1328 73.6505 16.9838C73.5613 16.8497 73.4721 16.7156 73.4275 16.5816C73.1598 16.0452 72.9368 15.4642 72.8029 14.8832C72.7137 14.3021 72.6245 13.7211 72.7137 13.1848C72.7137 12.9166 72.7583 12.6485 72.8029 12.425C72.8475 12.1568 72.9368 11.9334 72.9814 11.7099C73.0706 11.4864 73.1152 11.2629 73.2044 11.0842C73.2936 10.9054 73.3829 10.7266 73.4721 10.5478C73.5613 10.3691 73.6505 10.235 73.7397 10.1009C73.829 9.96681 73.9182 9.83272 74.0074 9.74333C74.0669 9.71354 74.1115 9.66884 74.1412 9.60925C74.2007 9.57946 74.2453 9.53476 74.2751 9.47517C74.3643 9.38578 74.4089 9.34109 74.4535 9.29639C74.5427 9.207 74.5873 9.11761 74.5873 9.11761C74.5873 9.11761 74.5427 9.16231 74.4535 9.29639C74.4089 9.34109 74.3643 9.43047 74.2751 9.51986C74.2304 9.56456 74.1858 9.60925 74.1858 9.65395C74.1412 9.69864 74.0966 9.74333 74.0966 9.83272C74.0074 9.92211 73.9182 10.0562 73.829 10.1903C73.7397 10.3244 73.6505 10.5031 73.5613 10.6372C73.4721 10.816 73.3829 10.9948 73.3382 11.1735C73.249 11.3523 73.2044 11.5758 73.1152 11.7993C73.0706 12.0227 72.9814 12.2462 72.9814 12.5144C72.9368 12.7378 72.8921 13.006 72.8921 13.2742C72.8475 13.8105 72.9368 14.3468 73.026 14.8832C73.1598 15.4195 73.3383 16.0005 73.6505 16.5369C73.9182 17.0732 74.3197 17.5201 74.7211 17.9671C75.1672 18.3693 75.6133 18.7716 76.1487 19.0397C76.684 19.3079 77.2193 19.5314 77.7992 19.6655C78.3345 19.7548 78.9145 19.8442 79.4052 19.7995C79.6728 19.7995 79.8959 19.7548 80.1635 19.7101C80.3866 19.6655 80.6542 19.6208 80.8773 19.5761C81.1003 19.4867 81.3234 19.442 81.5018 19.3526C81.6803 19.2632 81.8587 19.2185 82.0371 19.1291C82.2156 19.0397 82.3494 18.9503 82.4832 18.861C82.6171 18.7716 82.7509 18.6822 82.8401 18.5928C82.8847 18.5481 82.9293 18.5034 83.0185 18.5034C83.0632 18.4587 83.1078 18.414 83.1524 18.414C83.2416 18.3246 83.2862 18.2799 83.3754 18.2352C83.4646 18.1012 83.5093 18.0565 83.5093 18.0565Z"
            fill="white" />
    </g>
    <mask id="mask13_3751_5838" style="mask-type:luminance" maskUnits="userSpaceOnUse" x="7" y="7" width="106"
        height="64">
        <path d="M7.44971 7.24048H112.461V70.751H7.44971V7.24048Z" fill="white" />
    </mask>
    <g mask="url(#mask13_3751_5838)">
        <path
            d="M81.5908 43.7557C83.6875 39.9567 85.3826 35.8895 86.5871 31.5989C87.2563 33.5207 87.5685 35.7554 87.5239 38.1689L87.4793 43.5769V43.8898C85.6057 43.8898 83.5983 43.8451 81.5908 43.7557Z"
            fill="#B3A37D" />
    </g>
    <mask id="mask14_3751_5838" style="mask-type:luminance" maskUnits="userSpaceOnUse" x="7" y="7" width="106"
        height="64">
        <path d="M7.44971 7.24048H112.461V70.751H7.44971V7.24048Z" fill="white" />
    </mask>
    <g mask="url(#mask14_3751_5838)">
        <path
            d="M30.4238 49.5212C30.5577 50.5492 30.6915 51.5772 30.9591 52.5604C31.0038 52.8286 31.093 53.0521 31.1376 53.3202L31.3606 54.08L31.4499 54.4376L31.5837 54.7952L31.8513 55.5103L32.119 56.2254L32.2528 56.5829L32.4313 56.9405L32.7435 57.6556L33.1004 58.326C33.2342 58.5495 33.3681 58.7729 33.4573 58.9964C33.606 59.2348 33.7398 59.4583 33.8588 59.6668C34.1264 60.1138 34.4387 60.516 34.751 60.9183C35.0632 61.3205 35.3755 61.7228 35.7324 62.125C36.0893 62.4826 36.4015 62.8848 36.803 63.2424C37.5168 63.9575 38.3197 64.6279 39.1673 65.2089C39.9703 65.8346 40.8625 66.3263 41.7547 66.8179C42.6469 67.3095 43.5837 67.7118 44.5651 68.0693C45.5465 68.4269 46.4833 68.7398 47.5093 69.0079C48.4907 69.2761 49.5168 69.4549 50.4982 69.6336C51.5242 69.8124 52.5502 69.9018 53.5316 69.9465C54.0223 69.9465 54.5577 69.9912 55.0484 69.9912H55.8067H56.5651C57.5911 69.9465 58.6171 69.8571 59.5986 69.723C60.6246 69.5889 61.606 69.3655 62.632 69.142C63.6134 68.9185 64.5948 68.6504 65.5762 68.2928C66.5577 67.98 67.4945 67.5777 68.342 67.0414L68.2974 67.1308L67.8513 65.1195C67.7175 64.4491 67.5391 63.7787 67.3606 63.1083C67.1822 62.4379 66.9591 61.8121 66.6023 61.1864C66.29 60.6054 65.8439 60.0244 65.264 59.6668C64.6841 59.2646 64.0595 59.0858 63.3458 58.9517C62.6766 58.8623 61.9629 58.9517 61.2937 59.0858C60.6246 59.2199 59.9554 59.3987 59.2863 59.5327C58.6171 59.6668 57.9034 59.8009 57.2342 59.8009C56.8774 59.8009 56.5205 59.8456 56.2082 59.8009H55.6729C55.4945 59.8009 55.316 59.7562 55.1376 59.7562L54.6023 59.7115L54.1116 59.6221C53.9331 59.5774 53.7547 59.5774 53.6209 59.5327L53.1301 59.3987C52.461 59.2199 51.8365 58.9517 51.2119 58.5942C50.8997 58.4154 50.632 58.2366 50.3197 58.0578C50.0521 57.8344 49.7844 57.6556 49.5168 57.4321C48.9814 56.9852 48.5354 56.4488 48.1339 55.9125C47.9108 55.6443 47.7324 55.3762 47.5539 55.0633L47.2863 54.6164C47.1971 54.4823 47.1525 54.3035 47.0632 54.1694C46.9294 53.8566 46.751 53.5437 46.6617 53.2309C46.5279 52.918 46.3941 52.6051 46.3049 52.2476C46.3941 52.5604 46.5279 52.918 46.6617 53.2309C46.7956 53.5437 46.9294 53.8566 47.1078 54.1694C47.1971 54.3035 47.2417 54.4823 47.3309 54.6164L47.5985 55.0633C47.777 55.3762 48 55.6443 48.1785 55.9125C48.58 56.4488 49.0707 56.9852 49.606 57.4321C49.8736 57.6556 50.1413 57.8344 50.409 58.0578C50.7212 58.2366 50.9889 58.4154 51.3012 58.5942C51.9257 58.907 52.5502 59.1752 53.2194 59.354L53.7101 59.4881C53.8885 59.5327 54.067 59.5774 54.2008 59.5774L54.6915 59.6668L55.1822 59.7115C55.3606 59.7115 55.5391 59.7562 55.6729 59.7562H56.2082C56.5651 59.7562 56.8774 59.7562 57.2342 59.7562C57.9034 59.7115 58.6171 59.6221 59.2863 59.4434C59.9554 59.3093 60.6246 59.1305 61.2937 58.9964C61.9629 58.8623 62.6766 58.7729 63.3904 58.8623C64.0595 58.9517 64.7733 59.1752 65.3532 59.5774C65.9331 59.9797 66.4238 60.516 66.7361 61.1417C67.093 61.7675 67.316 62.4379 67.4945 63.0636C67.6729 63.7489 67.8513 64.4193 68.0298 65.0748L68.4759 67.0861V67.1755L68.4313 67.2201C67.5391 67.7565 66.5577 68.114 65.5762 68.4716C64.5948 68.7844 63.6134 69.0526 62.5874 69.3208C61.606 69.5443 60.58 69.7677 59.5539 69.9018C58.513 70.0508 57.487 70.1402 56.4759 70.17H55.7175H54.9591C54.4238 70.17 53.9331 70.1253 53.3978 70.1253C52.3718 70.0359 51.3458 69.9465 50.3197 69.7677C49.2937 69.6336 48.3123 69.4102 47.2863 69.142C46.3049 68.8738 45.3235 68.561 44.342 68.2034C43.4052 67.8012 42.4238 67.3989 41.5316 66.9073C40.6394 66.4157 39.7473 65.8793 38.9443 65.2536C38.0967 64.6279 37.3383 64.0022 36.58 63.2424C36.2231 62.8848 35.8662 62.4826 35.5093 62.125C35.1971 61.7228 34.8402 61.3205 34.5279 60.9183C34.2157 60.516 33.948 60.0691 33.6357 59.6668C33.5168 59.4583 33.3829 59.2348 33.2342 58.9964C33.1004 58.7729 32.9666 58.5495 32.8774 58.326L32.5205 57.6556L32.2082 56.9405L32.0298 56.5829L31.8959 56.2254L31.6283 55.5103L31.3606 54.7952L31.2268 54.4376L31.1376 54.08L30.9145 53.3202C30.8699 53.0521 30.7807 52.8286 30.7361 52.5604C30.6915 51.5772 30.513 50.5492 30.4238 49.5212Z"
            fill="white" />
    </g>
    <mask id="mask15_3751_5838" style="mask-type:luminance" maskUnits="userSpaceOnUse" x="7" y="7" width="106"
        height="64">
        <path d="M7.44971 7.24048H112.461V70.751H7.44971V7.24048Z" fill="white" />
    </mask>
    <g mask="url(#mask15_3751_5838)">
        <path
            d="M72.7139 50.2811L73.0261 66.952L72.9369 66.8626C73.9629 67.0861 75.0336 67.1755 76.1042 67.0861C77.1748 66.9967 78.2009 66.8179 79.1823 66.4157C80.1637 66.0134 81.1005 65.4771 81.9035 64.8067C82.7064 64.1363 83.4648 63.3318 84.0447 62.4826C84.6693 61.6334 85.2046 60.6948 85.6507 59.7116C86.0968 58.7283 86.4536 57.745 86.7213 56.717C86.989 55.6891 87.212 54.6164 87.3458 53.5884C87.5243 52.5158 87.6135 51.4431 87.6581 50.4152C87.6135 51.4878 87.5689 52.5605 87.4351 53.6331C87.3012 54.7058 87.0782 55.7338 86.8105 56.8064C86.5429 57.8344 86.186 58.8624 85.7845 59.8456C85.3384 60.8289 84.8477 61.7675 84.2232 62.6614C83.5986 63.5553 82.8849 64.3597 82.0373 65.0302C81.1897 65.7006 80.2529 66.2816 79.2715 66.6838C78.2455 67.0861 77.2194 67.3096 76.1042 67.399C75.0336 67.4585 73.9629 67.3692 72.8923 67.1308H72.8031V67.0414L72.7139 50.2811Z"
            fill="white" />
    </g>
    <path
        d="M68.4312 24.1349L67.9405 26.325C67.762 27.0401 67.6282 27.7552 67.4051 28.4703C67.1821 29.1854 66.9144 29.9005 66.513 30.5262C66.1115 31.1519 65.5315 31.6883 64.8624 31.9564C64.1932 32.2693 63.4349 32.4034 62.6765 32.3587C61.9182 32.314 61.2044 32.1799 60.4906 32.0011C59.7769 31.8224 59.0631 31.6883 58.3048 31.5542C57.591 31.4648 56.8327 31.4201 56.0743 31.4648C54.6022 31.5542 53.1301 31.867 51.7918 32.4928C51.1226 32.8056 50.4981 33.2079 49.9182 33.6548C49.3382 34.1018 48.8475 34.6381 48.3568 35.2191C47.4646 36.3812 46.7955 37.722 46.3494 39.1522C46.1412 39.8673 45.9628 40.5824 45.8141 41.2975C45.6802 42.0126 45.591 42.7724 45.5464 43.4876V43.5769H45.4572L30.2007 43.8451L45.4572 43.3982L45.368 43.4876C45.4126 42.7277 45.5018 42.0126 45.6356 41.2528C45.7695 40.5377 45.9479 39.7779 46.1709 39.0628C46.617 37.6326 47.2862 36.2918 48.223 35.085C48.6691 34.504 49.2044 33.9677 49.7843 33.5207C50.3643 33.0738 50.9888 32.6715 51.7025 32.3587C53.0408 31.733 54.5576 31.4201 56.0297 31.3307C56.788 31.286 57.5018 31.3307 58.2602 31.4201C58.9739 31.5095 59.7323 31.6883 60.446 31.8671C61.1598 32.0458 61.8735 32.1799 62.6319 32.2246C63.4051 32.2842 64.1189 32.1501 64.7732 31.8224C65.4423 31.5095 66.0222 31.0179 66.4237 30.3921C66.8252 29.7664 67.0929 29.096 67.3159 28.3809C67.5538 27.6658 67.7323 26.9507 67.8512 26.2356L68.4312 24.1349Z"
        fill="white" />
    <path
        d="M72.8923 24.4031L72.9369 43.711L72.8031 43.6216L80.1637 43.711L87.4797 43.8451H80.1637L72.8031 43.8004H72.7139V43.711L72.8923 24.4031Z"
        fill="white" />
    <defs>
        <linearGradient id="paint0_linear_3751_5838" x1="14113.5" y1="2524.6" x2="14113.5" y2="4028.2"
            gradientUnits="userSpaceOnUse">
            <stop stop-color="#C5C6C8" />
            <stop offset="1" stop-color="#8A8989" />
        </linearGradient>
        <linearGradient id="paint1_linear_3751_5838" x1="5590.95" y1="2577.97" x2="20759.7" y2="2577.97"
            gradientUnits="userSpaceOnUse">
            <stop stop-color="#87888A" />
            <stop offset="1" stop-color="#656566" />
        </linearGradient>
        <linearGradient id="paint2_linear_3751_5838" x1="2550.01" y1="1006.43" x2="2550.01" y2="1580.03"
            gradientUnits="userSpaceOnUse">
            <stop stop-color="#87888A" />
            <stop offset="1" stop-color="#656566" />
        </linearGradient>
        <linearGradient id="paint3_linear_3751_5838" x1="4918.31" y1="-243.91" x2="3792.31" y2="3853.52"
            gradientUnits="userSpaceOnUse">
            <stop stop-color="#E0D9C9" />
            <stop offset="1" stop-color="#B3A37D" />
        </linearGradient>
        <linearGradient id="paint4_linear_3751_5838" x1="6563.93" y1="-1014.49" x2="5303.47" y2="5235.88"
            gradientUnits="userSpaceOnUse">
            <stop stop-color="#E0D9C9" />
            <stop offset="1" stop-color="#B3A37D" />
        </linearGradient>
        <linearGradient id="paint5_linear_3751_5838" x1="3519.68" y1="-227.118" x2="2838.5" y2="2574.37"
            gradientUnits="userSpaceOnUse">
            <stop stop-color="#E0D9C9" />
            <stop offset="1" stop-color="#B3A37D" />
        </linearGradient>
    </defs>
</svg>