<svg width="155" height="39" viewBox="0 0 155 39" fill="none" xmlns="http://www.w3.org/2000/svg">
<path d="M0.44281 1.46436H9.75801C15.1976 1.46436 18.4863 4.66136 18.4863 9.28253V9.34754C18.4863 14.5803 14.3843 17.2928 9.26946 17.2928H5.45937V24.0768H0.44281V1.46436ZM9.43032 12.8666C11.9386 12.8666 13.4042 11.3804 13.4042 9.44209V9.37708C13.4042 7.14923 11.8403 5.95257 9.33202 5.95257H5.45639V12.8636H9.43032V12.8666Z" fill="#144722"/>
<path d="M23.5 1.46436H28.5165V19.5531H39.8812V24.0768H23.5V1.46436Z" fill="#144722"/>
<path d="M44.8948 1.46436H49.9114V24.0768H44.8948V1.46436Z" fill="#144722"/>
<path d="M61.863 6.05303H54.925V1.46436H73.8145V6.05007H66.8765V24.0738H61.86V6.05303H61.863Z" fill="#144722"/>
<path d="M101.117 1.46436H106.13V24.0768H101.117V1.46436Z" fill="#144722"/>
<path d="M111.144 12.8342V12.7692C111.144 6.33977 116.029 1.07446 123.03 1.07446C127.329 1.07446 129.902 2.49568 132.017 4.56398L128.827 8.21306C127.069 6.62933 125.276 5.66018 122.997 5.66018C119.154 5.66018 116.387 8.82468 116.387 12.7013V12.7663C116.387 16.6429 119.089 19.8724 122.997 19.8724C125.604 19.8724 127.197 18.8382 128.991 17.2249L132.181 20.4219C129.837 22.9098 127.23 24.4581 122.833 24.4581C116.125 24.4581 111.141 19.3228 111.141 12.8283L111.144 12.8342Z" fill="#144722"/>
<path d="M137.198 1.46436H154.392V5.89052H142.179V10.4762H152.927V14.9024H142.179V19.6506H154.553V24.0768H137.195V1.46436H137.198Z" fill="#144722"/>
<path d="M96.544 9.39786C96.827 3.93163 95.8916 2.17653 95.0545 1.66537C93.4488 0.6844 90.9078 0.377109 88.6438 0.329834C89.0698 0.492343 89.4332 0.696219 89.7222 0.94146C90.4937 1.59741 90.7767 3.40569 90.6069 6.63224C90.3269 12.0128 88.8225 19.8487 88.1791 23.0191C89.7937 26.6948 91.5453 28.7512 93.2582 28.9906C93.6186 27.5221 96.1448 16.9885 96.541 9.3949L96.544 9.39786Z" fill="#63523D"/>
<path d="M82.814 4.28311C82.6233 7.93219 81.6254 13.6525 81.4079 14.8699C80.9908 14.5951 80.112 13.4486 79.2154 8.74769C78.6136 5.5891 78.2979 2.35664 78.3038 1.42886C79.3524 1.15702 81.7713 0.693132 82.528 1.28703C82.6561 1.38749 82.9361 1.87797 82.811 4.28311H82.814Z" fill="#537A2C"/>
<path d="M89.8562 6.59385C89.5285 12.9169 87.4939 22.6705 87.1841 24.133C85.492 23.746 83.803 19.893 82.522 13.4517C82.9182 10.8634 83.4157 7.23207 83.5527 4.5876C83.6957 1.84267 83.4127 1.2074 83.0821 0.926705C82.9718 0.835109 82.8467 0.755332 82.7008 0.687373C84.6401 0.403721 87.8067 0.164389 89.1681 1.32264C89.5881 1.68016 90.0469 2.88273 89.8562 6.59385Z" fill="#144722"/>
<path d="M26.5802 38.5876V36.67H24.623V38.5876H23.5625V33.8069H24.623V35.6979H26.5802V33.8069H27.6407V38.5876H26.5802Z" fill="#6D6E71"/>
<path d="M36.9589 37.1575C36.8308 37.4559 36.6521 37.7159 36.4257 37.9435C36.1993 38.171 35.9282 38.3453 35.6124 38.4753C35.2966 38.6053 34.9541 38.6703 34.5817 38.6703C34.2093 38.6703 33.8667 38.6053 33.5539 38.4753C33.2412 38.3453 32.9701 38.171 32.7437 37.9494C32.5173 37.7278 32.3385 37.4677 32.2134 37.1723C32.0883 36.8738 32.0228 36.5547 32.0228 36.212V36.1972C32.0228 35.8545 32.0883 35.5354 32.2164 35.2369C32.3445 34.9385 32.5232 34.6785 32.7496 34.451C32.976 34.2264 33.2471 34.0491 33.5629 33.9191C33.8787 33.7891 34.2212 33.7241 34.5936 33.7241C34.966 33.7241 35.3085 33.7891 35.6213 33.9191C35.9341 34.0491 36.2052 34.2235 36.4316 34.4451C36.658 34.6667 36.8368 34.9267 36.9619 35.2222C37.087 35.5206 37.1525 35.8397 37.1525 36.1824V36.1972C37.1525 36.54 37.087 36.8591 36.9589 37.1575ZM36.0414 36.1972C36.0414 35.9933 36.0056 35.7983 35.9341 35.6181C35.8626 35.4349 35.7614 35.2753 35.6303 35.1394C35.4992 35.0035 35.3443 34.8942 35.1656 34.8144C34.9868 34.7346 34.7902 34.6962 34.5787 34.6962C34.3672 34.6962 34.1676 34.7346 33.9889 34.8115C33.8131 34.8883 33.6612 34.9947 33.5331 35.1335C33.408 35.2694 33.3067 35.429 33.2352 35.6092C33.1637 35.7895 33.128 35.9815 33.128 36.1854V36.2002C33.128 36.404 33.1637 36.5991 33.2352 36.7793C33.3067 36.9625 33.408 37.122 33.539 37.258C33.6701 37.3939 33.825 37.5032 34.0008 37.583C34.1765 37.6628 34.3732 37.7012 34.5906 37.7012C34.8081 37.7012 34.9987 37.6628 35.1775 37.5859C35.3562 37.5091 35.5081 37.4027 35.6362 37.2639C35.7614 37.128 35.8626 36.9684 35.9341 36.7882C36.0056 36.6079 36.0414 36.4159 36.0414 36.212V36.1972Z" fill="#6D6E71"/>
<path d="M41.5316 38.5876V33.8069H42.5921V37.6391H44.9991V38.5876H41.5316Z" fill="#6D6E71"/>
<path d="M49.2799 38.5876V33.8069H50.3404V38.5876H49.2799Z" fill="#6D6E71"/>
<path d="M59.2445 37.1398C59.1193 37.4323 58.9436 37.6835 58.7172 37.8992C58.4908 38.1119 58.2197 38.2803 57.9039 38.4044C57.5882 38.5285 57.2426 38.5876 56.8673 38.5876H54.9846V33.8069H56.8673C57.2456 33.8069 57.5911 33.866 57.9039 33.9871C58.2197 34.1083 58.4908 34.2737 58.7172 34.4894C58.9436 34.7022 59.1193 34.9563 59.2445 35.2429C59.3696 35.5324 59.4292 35.8456 59.4292 36.1825V36.1972C59.4292 36.5341 59.3666 36.8473 59.2445 37.1398ZM58.321 36.1972C58.321 35.9875 58.2852 35.7954 58.2137 35.6181C58.1422 35.4408 58.0439 35.2872 57.9158 35.1601C57.7907 35.0331 57.6358 34.9326 57.4571 34.8647C57.2783 34.7938 57.0788 34.7583 56.8643 34.7583H56.0451V37.6391H56.8643C57.0788 37.6391 57.2783 37.6037 57.4571 37.5357C57.6358 37.4678 57.7877 37.3703 57.9158 37.2432C58.041 37.1162 58.1422 36.9655 58.2137 36.7911C58.2852 36.6198 58.321 36.4248 58.321 36.212V36.1972Z" fill="#6D6E71"/>
<path d="M67.4008 38.5876L66.96 37.5151H64.9194L64.4785 38.5876H63.3971L65.4645 33.7744H66.4446L68.512 38.5876H67.4008ZM65.9382 35.0361L65.2977 36.5873H66.5816L65.9412 35.0361H65.9382Z" fill="#6D6E71"/>
<path d="M75.1104 36.6818V38.5876H74.0499V36.7025L72.194 33.8069H73.4362L74.5861 35.7245L75.7598 33.8069H76.9663L75.1104 36.6818Z" fill="#6D6E71"/>
<path d="M89.4958 38.5876L88.4621 37.0571H87.628V38.5876H86.5645V33.8069H88.7719C89.3468 33.8069 89.7937 33.9458 90.1124 34.2235C90.4312 34.5012 90.592 34.8883 90.592 35.3847V35.3995C90.592 35.7865 90.4967 36.1027 90.306 36.345C90.1154 36.5873 89.8652 36.7675 89.5583 36.8798L90.738 38.5876H89.4958ZM89.5166 35.4408C89.5166 35.2133 89.4421 35.042 89.2962 34.9297C89.1502 34.8174 88.9447 34.7583 88.6825 34.7583H87.628V36.1322H88.7034C88.9655 36.1322 89.1651 36.0702 89.3051 35.9491C89.4451 35.8279 89.5166 35.6624 89.5166 35.4586V35.4438V35.4408Z" fill="#6D6E71"/>
<path d="M94.983 38.5876V33.8069H98.6173V34.7435H96.0316V35.7127H98.3075V36.6493H96.0316V37.6539H98.6531V38.5906H94.986L94.983 38.5876Z" fill="#6D6E71"/>
<path d="M106.395 37.8045C106.309 37.9877 106.187 38.1443 106.032 38.2684C105.877 38.3925 105.692 38.49 105.475 38.555C105.26 38.62 105.022 38.6554 104.76 38.6554C104.394 38.6554 104.03 38.5934 103.679 38.4663C103.327 38.3393 103.002 38.1502 102.713 37.8902L103.342 37.1456C103.562 37.3229 103.789 37.4647 104.021 37.5681C104.254 37.6715 104.507 37.7247 104.784 37.7247C105.004 37.7247 105.177 37.6863 105.296 37.6065C105.418 37.5267 105.478 37.4174 105.478 37.2756V37.2608C105.478 37.1929 105.466 37.1308 105.439 37.0806C105.412 37.0274 105.365 36.9801 105.293 36.9328C105.222 36.8885 105.123 36.8412 104.995 36.7969C104.867 36.7526 104.703 36.7024 104.501 36.6521C104.257 36.5931 104.036 36.528 103.836 36.4542C103.637 36.3803 103.47 36.2917 103.333 36.1853C103.193 36.0789 103.089 35.946 103.011 35.7864C102.934 35.6269 102.898 35.4289 102.898 35.1925V35.1777C102.898 34.9591 102.94 34.7611 103.02 34.5868C103.104 34.4125 103.217 34.2618 103.366 34.1318C103.515 34.0047 103.69 33.9072 103.896 33.8393C104.102 33.7713 104.328 33.7358 104.578 33.7358C104.933 33.7358 105.257 33.789 105.555 33.8924C105.853 33.9959 106.124 34.1465 106.372 34.3445L105.82 35.1364C105.603 34.9916 105.394 34.8764 105.186 34.7907C104.977 34.705 104.772 34.6636 104.566 34.6636C104.361 34.6636 104.203 34.702 104.102 34.7818C103.997 34.8616 103.947 34.962 103.947 35.0773V35.0921C103.947 35.1689 103.962 35.2368 103.991 35.293C104.021 35.3491 104.075 35.4023 104.155 35.4466C104.233 35.4909 104.34 35.5353 104.477 35.5766C104.614 35.618 104.784 35.6653 104.992 35.7214C105.237 35.7864 105.454 35.8573 105.645 35.9371C105.835 36.0169 105.996 36.1114 106.13 36.2237C106.261 36.336 106.36 36.466 106.428 36.6167C106.494 36.7674 106.529 36.9476 106.529 37.1574V37.1722C106.529 37.4086 106.485 37.6183 106.398 37.8045H106.395Z" fill="#6D6E71"/>
<path d="M115.606 37.1575C115.478 37.4559 115.299 37.7159 115.073 37.9435C114.847 38.171 114.576 38.3453 114.26 38.4753C113.944 38.6053 113.601 38.6703 113.229 38.6703C112.857 38.6703 112.514 38.6053 112.201 38.4753C111.889 38.3453 111.617 38.171 111.391 37.9494C111.165 37.7278 110.986 37.4677 110.861 37.1723C110.736 36.8768 110.67 36.5547 110.67 36.212V36.1972C110.67 35.8545 110.736 35.5354 110.864 35.2369C110.992 34.9385 111.171 34.6785 111.397 34.451C111.623 34.2264 111.895 34.0491 112.21 33.9191C112.526 33.7891 112.869 33.7241 113.241 33.7241C113.613 33.7241 113.956 33.7891 114.269 33.9191C114.582 34.0491 114.853 34.2235 115.079 34.4451C115.305 34.6667 115.484 34.9267 115.609 35.2222C115.734 35.5176 115.8 35.8397 115.8 36.1824V36.1972C115.8 36.54 115.734 36.8591 115.606 37.1575ZM114.689 36.1972C114.689 35.9933 114.653 35.7983 114.582 35.6181C114.51 35.4379 114.409 35.2753 114.278 35.1394C114.147 35.0035 113.992 34.8942 113.813 34.8144C113.634 34.7346 113.438 34.6962 113.226 34.6962C113.015 34.6962 112.812 34.7346 112.636 34.8115C112.461 34.8883 112.309 34.9947 112.181 35.1335C112.052 35.2694 111.954 35.429 111.883 35.6092C111.811 35.7895 111.775 35.9815 111.775 36.1854V36.2002C111.775 36.404 111.811 36.5991 111.883 36.7793C111.954 36.9625 112.055 37.122 112.186 37.258C112.318 37.3939 112.472 37.5032 112.648 37.583C112.824 37.6628 113.021 37.7012 113.238 37.7012C113.456 37.7012 113.643 37.6628 113.825 37.5859C114.004 37.5091 114.156 37.4027 114.284 37.2639C114.409 37.128 114.51 36.9684 114.579 36.7882C114.647 36.6079 114.686 36.4159 114.686 36.212V36.1972H114.689Z" fill="#6D6E71"/>
<path d="M123.11 38.5876L122.077 37.0571H121.242V38.5876H120.179V33.8069H122.386C122.961 33.8069 123.408 33.9458 123.727 34.2235C124.046 34.5012 124.207 34.8883 124.207 35.3847V35.3995C124.207 35.7865 124.111 36.1027 123.921 36.345C123.73 36.5873 123.48 36.7675 123.173 36.8798L124.353 38.5876H123.11ZM123.131 35.4408C123.131 35.2133 123.057 35.042 122.911 34.9297C122.765 34.8174 122.559 34.7583 122.297 34.7583H121.242V36.1322H122.318C122.58 36.1322 122.78 36.0702 122.92 35.9491C123.06 35.8279 123.131 35.6624 123.131 35.4586V35.4438V35.4408Z" fill="#6D6E71"/>
<path d="M130.784 34.776V38.5876H129.721V34.776H128.252V33.8069H132.253V34.776H130.784Z" fill="#6D6E71"/>
</svg>
