<?xml version="1.0" encoding="utf-8"?>
<!-- Generator: Adobe Illustrator 28.3.0, SVG Export Plug-In . SVG Version: 6.00 Build 0)  -->
<svg version="1.1" id="Livello_1" xmlns="http://www.w3.org/2000/svg" xmlns:xlink="http://www.w3.org/1999/xlink" x="0px" y="0px"
	 viewBox="0 0 846.4 200" style="enable-background:new 0 0 846.4 200;" xml:space="preserve">
<style type="text/css">
	.st0{fill:#004999;}
</style>
<g>
	<g>
		<g id="XMLID_00000163070652712311955660000003491377334460902816_">
			<path id="XMLID_00000176746998479410249590000017573732872587855269_" class="st0" d="M260.2,41.6L260.2,41.6
				c14.4,0,25.9,12.2,25.9,27.1v89.4h-25.9V41.6z"/>
			<path id="XMLID_00000009552119673044231920000002956996576177427584_" class="st0" d="M337.1,120.5c7.5-3.3,13.6-8,17.6-14.4
				c4.2-6.4,6.1-13.6,6.1-22.4s-2.1-16-6.1-22.4s-9.9-11.3-17.4-14.6c-7.5-3.5-16.5-5.2-26.8-5.2h-10.8v21.9h9.2
				c8,0,14.1,1.6,18.4,5.2c4.2,3.5,6.4,8.5,6.4,15.1c0,6.4-2.1,11.3-6.4,15.1c-4.2,3.5-10.4,5.4-18.4,5.4h-9.2v21.4h10.8h1.4
				l22.4,32.5h28.9L337.1,120.5z"/>
		</g>
		<g id="XMLID_00000130622088883768769240000008632108691370887102_">
			<path id="XMLID_00000005976552249338494130000014439676101107520447_" class="st0" d="M390.8,42.1h26.8v116h-26.8V42.1z"/>
			<path id="XMLID_00000039825484840643503260000011476286065631104935_" class="st0" d="M550.8,158.1l-0.2-69.6l-34.1,57.4h-12
				l-33.9-55.8v68.2h-25.2V42.1h22.1l43.5,72.2l42.8-72.2h22.1l0.2,116H550.8z"/>
			<path id="XMLID_00000129202491336302458090000002704819657874848402_" class="st0" d="M627.2,152.2c-9.6-5.2-17.2-12.2-22.8-21.4
				c-5.4-9.2-8.2-19.3-8.2-30.8s2.8-21.6,8.2-30.8c5.4-9.2,12.9-16.2,22.8-21.4c9.6-5.2,20.5-7.8,32.5-7.8s22.8,2.6,32.5,7.8
				c9.6,5.2,17.2,12.5,22.8,21.4c5.4,9.2,8.2,19.3,8.2,30.8s-2.8,21.6-8.2,30.8c-5.4,9.2-13.2,16.2-22.8,21.4
				c-9.6,5.2-20.5,7.8-32.5,7.8S636.9,157.4,627.2,152.2z M678.3,132.5c5.4-3.1,9.9-7.5,12.9-13.2c3.1-5.6,4.7-12,4.7-19.3
				c0-7.3-1.6-13.6-4.7-19.3c-3.1-5.6-7.5-10.1-12.9-13.2s-11.8-4.7-18.6-4.7c-6.8,0-12.9,1.6-18.6,4.7c-5.4,3.1-9.9,7.5-12.9,13.2
				c-3.1,5.6-4.7,12-4.7,19.3c0,7.3,1.6,13.6,4.7,19.3s7.5,10.1,12.9,13.2s11.8,4.7,18.6,4.7C666.5,137.2,672.6,135.5,678.3,132.5z"
				/>
			<path id="XMLID_00000075857895807552929360000010533028164941914294_" class="st0" d="M817.3,158.1L795,125.9h-1.4h-23.3v32.2
				h-26.8v-116h50.4c10.4,0,19.3,1.6,26.8,5.2c7.5,3.5,13.4,8.2,17.4,14.6c4,6.4,6.1,13.6,6.1,22.4s-2.1,16-6.1,22.4
				c-4.2,6.4-10.1,11.1-17.6,14.4l26.1,37.4h-29.2V158.1z M810.5,69.2c-4.2-3.5-10.4-5.2-18.4-5.2h-21.9v40.5h21.9
				c8,0,14.1-1.9,18.4-5.4c4.2-3.5,6.4-8.5,6.4-14.8C816.9,77.6,814.8,72.7,810.5,69.2z"/>
		</g>
	</g>
	<path class="st0" d="M99.9,0C44.6,0-0.1,44.7-0.1,100s44.7,100,100,100c16.9,0,32.9-4.2,47.1-11.8L106.5,148
		c-6.4-6.4-4.2-18.8,4.7-27.8l0,0l54.8,54.8c3.3-2.8,6.4-6.1,9.4-9.4l-72-71.8c-14.1-14.1-14.1-37.4,0-51.8l90.8,90.8
		c3.5-10.4,5.6-21.4,5.6-32.9C199.9,44.7,155.2,0,99.9,0z"/>
</g>
</svg>
