<?xml version="1.0" encoding="UTF-8"?>
<svg xmlns="http://www.w3.org/2000/svg" class="logo-color" width="196" height="51" viewBox="0 0 196 51" fill="none">
  <path d="M109.908 0C124.947 0 138.595 2.7825 148.532 7.25438L136.64 19.1463C135.249 18.2188 133.924 17.3906 132.632 16.6288L124.185 25.0425C123.324 24.4683 122.496 23.9383 121.701 23.4525L114.248 30.9388C108.616 27.1625 104.509 25.5394 98.3809 23.8831C89.5696 21.5313 81.3877 21.7963 75.1602 23.4856L74.3652 22.2931C80.5265 20.0075 88.4765 18.6825 97.1221 18.6825C103.184 18.6825 107.556 18.815 114.115 19.9412L114.446 19.61C110.637 17.9869 108.186 17.225 104.376 16.2313C93.3459 13.2831 82.9115 13.3163 75.094 15.4694L74.3652 14.2438C82.0502 11.3619 91.9877 9.73875 102.786 9.73875C109.776 9.73875 114.645 10.1363 122.165 11.8919L122.496 11.5606C118.455 9.9375 115.838 9.17563 111.863 8.11563C98.0827 4.43875 84.899 4.24 75.1271 6.92313L74.3652 5.63125C83.9715 2.05375 96.3934 0 109.908 0Z" fill="#E03A3E"></path>
  <path d="M128.79 35.0797L123.523 50.6484H117.13L122.397 35.0797H117.826L119.482 30.144H134.951L133.262 35.0797H128.79Z" fill="#323137"></path>
  <path d="M195.305 30.144L188.382 50.6484H181.79L186.759 36.0072H186.693L177.749 50.6484H173.476L174.337 36.0072H174.271L169.302 50.6484H163.638L164.532 47.7003H164.631L170.561 30.144H179.67L179.107 41.009H179.173L185.831 30.144H195.305Z" fill="#323137"></path>
  <path fill-rule="evenodd" clip-rule="evenodd" d="M146.181 50.6484H128.823L135.746 30.144H152.176L150.553 34.8809H140.715L139.721 37.8622H147.671L146.114 42.4334H138.164L137.038 45.7459H146.479L156.913 30.144H164.631L164.532 50.6484H157.675L157.808 46.6072H151.978L149.261 50.6484H146.181ZM154.594 42.1353H158.172L158.636 35.3447C158.636 35.3447 154.628 42.1353 154.594 42.1353Z" fill="#323137"></path>
  <path fill-rule="evenodd" clip-rule="evenodd" d="M12.0906 50.6484L11.5275 42.7978H9.44063L6.79063 50.6484H0L6.92313 30.144H18.0531C19.9744 30.144 21.995 30.3759 23.2869 31.4028C24.7444 32.4628 24.9763 34.2847 24.2806 36.3053C23.3863 38.9884 21.5644 40.6115 18.6163 41.7047L19.5438 50.6484H12.0906ZM13.3825 38.4253C14.84 38.4253 16.6619 38.1934 17.2581 36.4378C17.49 35.7422 17.3244 35.1128 16.7944 34.7815C16.2975 34.5165 15.6019 34.5165 14.9725 34.5165H12.2563L10.9313 38.4253H13.3825Z" fill="#323137"></path>
  <path d="M54.954 45.6134L53.2646 50.6484H39.584L42.3002 42.5659H42.2009L43.6584 38.1934H43.7909L46.5071 30.144H53.2646L48.0309 45.6134H54.954Z" fill="#323137"></path>
  <path d="M69.4628 45.6134L67.7734 50.6484H54.0928L61.0159 30.144H67.7734L62.5396 45.6134H69.4628Z" fill="#323137"></path>
  <path d="M86.6879 45.7459L85.0316 50.6484H68.6348L75.5579 30.144H91.9548L90.3648 34.8809H80.5266L79.4998 37.8622H87.4829L85.926 42.4334H77.976L76.8498 45.7459H86.6879Z" fill="#323137"></path>
  <path fill-rule="evenodd" clip-rule="evenodd" d="M105.47 50.6484H98.0164L97.4533 42.8309H95.3664L92.7164 50.6484H85.9258L92.8489 30.144H103.979C105.9 30.144 107.921 30.3759 109.213 31.4028C110.67 32.4628 110.902 34.2847 110.24 36.3053C109.312 38.9884 107.49 40.6115 104.542 41.7047L105.47 50.6484ZM99.3083 38.4253C100.766 38.4253 102.588 38.1934 103.184 36.4378C103.416 35.7422 103.25 35.0797 102.72 34.7815C102.223 34.4834 101.528 34.4834 100.898 34.4834H98.182L96.857 38.4253H99.3083Z" fill="#323137"></path>
  <path fill-rule="evenodd" clip-rule="evenodd" d="M43.1285 40.4457C41.141 46.2757 35.7417 50.9463 29.1167 50.9463C22.4917 50.9463 20.2392 46.2757 22.1935 40.4457C22.3592 40.0151 22.4585 39.6838 22.6904 39.2201H22.591L24.3467 36.0401H24.446C27.1292 32.297 31.336 29.8457 36.2385 29.8457C42.8967 29.8457 45.1823 34.3176 43.1285 40.4457ZM29.3817 40.4788C28.7192 42.4663 27.6592 46.2426 30.7067 46.2426C33.7542 46.2426 35.2779 42.4663 35.9404 40.4788C36.6029 38.4913 37.6629 34.4832 34.6817 34.4832C31.7335 34.4832 30.0442 38.4913 29.3817 40.4788Z" fill="#323137"></path>
</svg>
