<svg width="154" height="66" viewBox="0 0 124 53" fill="none" xmlns="http://www.w3.org/2000/svg">
<path d="M124 52.7899H0V0H124V52.7899ZM1.71922 51.0707H122.281V1.71922H1.71922V51.0707Z" fill="white"/>
<path d="M100.043 24.6066V13.1875H109.195C111.544 13.1875 113.387 14.9656 113.387 17.2168C113.387 19.3538 111.723 21.083 109.521 21.2298C110.695 21.7518 111.902 22.2738 113.827 22.2738V24.9655C107.759 24.9655 109.423 21.6702 105.018 21.5724H102.979V24.6066H100.043ZM102.979 19.1254H108.705C109.684 19.1254 110.451 18.3587 110.451 17.3799C110.451 16.4012 109.684 15.6344 108.705 15.6344H102.979V19.1254Z" fill="white"/>
<path d="M83.3018 24.6066L89.1907 13.1875H93.1548L99.0601 24.6066H95.7649L94.6719 22.437H87.5758L86.4991 24.6066H83.3018ZM88.7992 19.99H93.4484L91.1157 15.3245L88.7992 19.99Z" fill="white"/>
<path d="M65.8086 24.6066V13.1875H69.7726L74.0793 19.0765L78.3533 13.1875H82.3173V24.6066H79.381V16.4338L75.1396 22.3228H73.0189L68.7449 16.4338V24.6066H65.8086Z" fill="white"/>
<path d="M49.0664 24.6066L54.9554 13.1875H58.9194L64.8247 24.6066H61.5295L60.4365 22.437H53.3404L52.2637 24.6066H49.0664ZM54.5639 19.99H59.2131L56.8803 15.3245L54.5639 19.99Z" fill="white"/>
<path d="M38.918 24.6073V13.1719H41.8543V22.1603H48.5752V24.6073H38.918Z" fill="white"/>
<path d="M22.1758 24.6066L28.0648 13.1875H32.0288L37.9341 24.6066H34.6389L33.5459 22.437H26.4498L25.3731 24.6066H22.1758ZM27.6732 19.99H32.3224L29.9897 15.3245L27.6732 19.99Z" fill="white"/>
<path d="M14.6153 24.6066L8.70996 13.1875H11.9562L16.5891 22.437L21.2383 13.1875H24.4683L18.5793 24.6066H14.6153Z" fill="white"/>
<path d="M107.709 31.8733C107.403 31.0503 106.467 30.1144 103.82 30.1144C100.205 30.1144 99.5277 32.1961 99.5277 33.5516C99.5277 34.9232 100.222 36.9081 103.82 36.9081C106.628 36.9081 107.806 35.8269 107.87 34.9716H103.61V33.0836H110.775L110.759 36.0689C109.613 38.1345 107.37 39.2963 103.965 39.2963C99.5761 39.2963 96.623 37.2308 96.623 33.487C96.623 29.7433 99.4147 27.6777 103.82 27.6777C107.564 27.6777 109.984 29.0171 110.598 31.1956L107.709 31.8733Z" fill="white"/>
<path d="M95.3265 27.8398V39.1357H91.3246L84.6439 30.8252V39.1357H81.7393V27.8398H85.7251L92.4219 36.1665V27.8398H95.3265Z" fill="white"/>
<path d="M79.9671 39.1357H77.0625V27.8398H79.9671V39.1357Z" fill="white"/>
<path d="M71.4505 27.8398C74.0163 27.8398 75.7752 29.4697 75.7752 31.987C75.7752 34.5044 74.0163 36.1181 71.4505 36.1181H65.4798V39.1357H62.5752V27.8398H71.4505ZM65.4798 33.6814H70.6437C71.515 33.6814 72.8706 33.6814 72.8706 31.987C72.8706 30.2765 71.515 30.2765 70.6437 30.2765H65.4798V33.6814Z" fill="white"/>
<path d="M44.627 39.1357V27.8398H48.5482L52.8084 33.6653L57.0362 27.8398H60.9575V39.1357H58.0529V31.0511L53.8573 36.8765H51.7595L47.5316 31.0511V39.1357H44.627Z" fill="white"/>
<path d="M28.0654 39.1357L33.8909 27.8398H37.8121L43.6537 39.1357H40.394L35.795 29.9538L31.2283 39.1357H28.0654Z" fill="white"/>
<path d="M25.5783 32.2122C25.0942 30.7115 23.3191 30.1144 21.8345 30.1144C19.5269 30.1144 17.7035 31.244 17.7035 33.4709C17.7035 35.7139 19.5431 36.8596 21.8345 36.8596C23.2062 36.8596 24.8521 36.3271 25.4653 35.0362L28.2409 35.8592C27.2565 38.1183 24.7392 39.2963 21.7377 39.2963C17.6551 39.2963 14.7988 37.1662 14.7988 33.4709C14.7988 29.8078 17.6551 27.6777 21.7377 27.6777C24.9167 27.6777 27.5793 28.9848 28.3861 31.5022L25.5783 32.2122Z" fill="white"/>
</svg>
